<svg width="1367" height="1117" viewBox="0 0 1367 1117" fill="none" xmlns="http://www.w3.org/2000/svg">
<path d="M1788.45 -372.354C1598.87 -389.617 1188.6 -570.59 1008.68 -222.9C893.493 -101.642 869.684 269.231 662.696 369.497C455.707 469.762 690.271 523.208 282.311 806.918C-323.432 1228.17 411.849 1238.26 519.411 1350.71C681.813 1424.02 768.142 1424.73 932.357 1355.43C1138.77 1268.32 1110.02 738.801 1391.64 516.929C1593.7 155.799 1814.89 -182.675 1788.45 -372.354Z" fill="black" fill-opacity="0.13" stroke="#050505"/>
<path d="M1461.85 20.0019C1346.9 6.37878 1098.29 -109.372 988.755 96.3956C918.754 167.258 903.874 389.631 778.219 446.308C652.564 502.984 794.76 539.115 547 702.536C179.124 945.185 586.848 1081 690 1081C778.067 1106.24 869.5 1098 940.594 1043.18C1047.07 961.077 1049.07 675.825 1220.14 547.38C1343.12 333.919 1477.67 134.396 1461.85 20.0019Z" fill="black" fill-opacity="0.38" stroke="#050505"/>
</svg>
